# xmcd CD database file
#
# Track frame offsets:
#	180
#	20379
#	42932
#	63929
#	87418
#	114840
#	141277
#	166911
#
# Disc length: 2575 seconds
#
# Revision: 0
# Processed by: cddbd v1.5.2PL0 Copyright (c) Steve Scherf et al.
# Submitted via: CDex 1.70beta2
#
DISCID=5f0a0d08
DTITLE=Rikoson All Stars - Evoluciones Del Son
DYEAR=2008
DGENRE=Salsa
TTITLE0=Cofrer A Ti
TTITLE1=Encadenado
TTITLE2=Seductora Rumba
TTITLE3=Ochun
TTITLE4=Aquella Noche
TTITLE5=Even The Nights Are Better
TTITLE6=Suavemente
TTITLE7=Rosa Rosa
EXTD=YEAR: 2008
EXTT0=
EXTT1=
EXTT2=
EXTT3=
EXTT4=
EXTT5=
EXTT6=
EXTT7=
PLAYORDER=
